<svg width="1379" height="747" viewBox="0 0 1379 747" fill="none" xmlns="http://www.w3.org/2000/svg">
<path fill-rule="evenodd" clip-rule="evenodd" d="M313 204.342C313 161.627 352.527 127 401.285 127L1104.71 127C1153.47 127 1193 161.627 1193 204.342L1193 622.658C1193 665.373 1153.47 700 1104.72 700L401.286 700C352.527 700 313 665.373 313 622.658L313 204.342ZM689.502 641.918C667.804 659.041 634.289 657.25 614.643 637.918L611.91 635.228C592.264 615.896 593.928 586.344 615.626 569.221L934.568 317.531C956.266 300.409 989.782 302.2 1009.43 321.532L1012.16 324.221C1031.81 343.553 1030.14 373.106 1008.44 390.229L689.502 641.918ZM511.48 472.93C493.292 487.096 491.875 511.683 508.313 527.847C524.752 544.01 552.822 545.629 571.01 531.462L719.463 415.83C737.651 401.664 739.069 377.076 722.63 360.913C706.191 344.75 678.121 343.131 659.934 357.298L511.48 472.93ZM333.377 397.762C312.854 412.351 310.104 439.138 327.235 457.593C329.07 459.57 331.058 461.371 333.172 462.994C335.036 467.004 337.599 470.855 340.875 474.409L393.892 531.912C411.433 550.938 442.785 554.229 463.918 539.262C485.05 524.296 487.962 496.741 470.421 477.715L433.413 437.576L754.625 209.228C775.148 194.638 777.898 167.851 760.768 149.396C743.638 130.942 713.114 127.808 692.592 142.397L333.377 397.762Z" fill="#B5FF18"/>
</svg>
