<svg width="934" height="651" viewBox="0 0 934 651" fill="none" xmlns="http://www.w3.org/2000/svg">
<g filter="url(#filter0_d)">
<path d="M40.5 434C40.5 422.954 49.4543 414 60.5 414H286.5C297.546 414 306.5 422.954 306.5 434V489C306.5 500.046 297.546 509 286.5 509H60.5C49.4543 509 40.5 500.046 40.5 489V434Z" fill="#5B9483"/>
</g>
<ellipse cx="204.5" cy="442.5" rx="10.5" ry="9.5" fill="#407875" fill-opacity="0.88"/>
<ellipse cx="241" cy="442.5" rx="10" ry="9.5" fill="#03D1C7" fill-opacity="0.88"/>
<ellipse cx="277.5" cy="442.5" rx="10.5" ry="9.5" fill="#4AE7DF" fill-opacity="0.88"/>
<g filter="url(#filter1_d)">
<path fill-rule="evenodd" clip-rule="evenodd" d="M364.974 148C358.347 148 352.974 153.373 352.974 160V215.39L313.974 215.474C307.347 215.488 301.986 220.872 302 227.499C302.014 234.127 307.398 239.488 314.026 239.473L352.974 239.39V288.861L313.973 289.262C307.346 289.33 302.029 294.757 302.097 301.384C302.165 308.011 307.593 313.328 314.22 313.26L352.974 312.862V368C352.974 374.627 358.347 380 364.974 380C371.602 380 376.974 374.627 376.974 368V312.615L449.974 311.865V368C449.974 374.627 455.347 380 461.974 380C468.602 380 473.974 374.627 473.974 368V311.618L522.209 311.122C528.836 311.054 534.153 305.626 534.085 298.999C534.017 292.372 528.589 287.055 521.962 287.123L473.974 287.617V239.129L522.025 239.026C528.653 239.012 534.014 233.627 533.999 227C533.985 220.373 528.601 215.012 521.974 215.026L473.974 215.129V160C473.974 153.373 468.602 148 461.974 148C455.347 148 449.974 153.373 449.974 160V215.181L376.974 215.338V160C376.974 153.373 371.602 148 364.974 148ZM376.974 239.338V288.614L449.974 287.863V239.181L376.974 239.338Z" fill="#53FFCC"/>
</g>
<g filter="url(#filter2_d)">
<ellipse cx="418" cy="175.5" rx="18" ry="19.5" fill="#2FF5BA"/>
</g>
<path fill-rule="evenodd" clip-rule="evenodd" d="M310.689 364.863C311.521 365.59 312.784 365.505 313.511 364.674L325.064 351.464L340.703 364.474C341.552 365.18 342.813 365.064 343.519 364.215C344.226 363.366 344.11 362.105 343.261 361.399L327.698 348.452L339.185 335.317C339.912 334.485 339.828 333.222 338.996 332.495C338.165 331.767 336.901 331.852 336.174 332.683L324.622 345.893L313.279 336.457C312.43 335.751 311.169 335.866 310.463 336.715C309.756 337.565 309.872 338.826 310.721 339.532L321.988 348.905L310.5 362.041C309.773 362.872 309.858 364.136 310.689 364.863Z" fill="#407875" fill-opacity="0.88"/>
<path fill-rule="evenodd" clip-rule="evenodd" d="M213 166.479C212.987 160.68 208.724 155.988 203.477 156C198.23 156.012 193.987 160.722 194 166.521C194.013 172.32 198.276 177.011 203.523 177C208.77 176.988 213.013 172.278 213 166.479ZM213.104 213.479C213.091 207.68 208.827 202.988 203.58 203C198.334 203.011 194.091 207.722 194.104 213.521C194.116 219.32 198.38 224.011 203.627 224C208.873 223.988 213.116 219.278 213.104 213.479ZM203.58 287C208.827 286.988 213.091 291.68 213.104 297.479C213.116 303.278 208.873 307.988 203.627 308C198.38 308.011 194.116 303.32 194.104 297.521C194.091 291.722 198.334 287.011 203.58 287ZM213 250.479C212.987 244.68 208.724 239.988 203.477 240C198.23 240.012 193.987 244.722 194 250.521C194.013 256.32 198.276 261.011 203.523 261C208.77 260.988 213.013 256.278 213 250.479ZM203.788 381C209.034 380.988 213.298 385.68 213.311 391.479C213.323 397.278 209.08 401.988 203.834 402C198.587 402.011 194.323 397.32 194.311 391.521C194.298 385.722 198.541 381.011 203.788 381ZM213.207 344.479C213.194 338.68 208.931 333.988 203.684 334C198.437 334.011 194.194 338.722 194.207 344.521C194.22 350.32 198.483 355.011 203.73 355C208.977 354.988 213.22 350.278 213.207 344.479Z" fill="#407875" fill-opacity="0.88"/>
<path fill-rule="evenodd" clip-rule="evenodd" d="M254 165.5C254 170.747 249.299 175 243.5 175C237.701 175 233 170.747 233 165.5C233 160.253 237.701 156 243.5 156C249.299 156 254 160.253 254 165.5ZM290 165.5C290 170.747 285.523 175 280 175C274.477 175 270 170.747 270 165.5C270 160.253 274.477 156 280 156C285.523 156 290 160.253 290 165.5ZM316.5 175C322.299 175 327 170.747 327 165.5C327 160.253 322.299 156 316.5 156C310.701 156 306 160.253 306 165.5C306 170.747 310.701 175 316.5 175Z" fill="#007B75" fill-opacity="0.88"/>
<defs>
<filter id="filter0_d" x="20.5" y="402" width="306" height="135" filterUnits="userSpaceOnUse" color-interpolation-filters="sRGB">
<feFlood flood-opacity="0" result="BackgroundImageFix"/>
<feColorMatrix in="SourceAlpha" type="matrix" values="0 0 0 0 0 0 0 0 0 0 0 0 0 0 0 0 0 0 127 0"/>
<feOffset dy="8"/>
<feGaussianBlur stdDeviation="10"/>
<feColorMatrix type="matrix" values="0 0 0 0 0.249934 0 0 0 0 0.470833 0 0 0 0 0.459849 0 0 0 0.88 0"/>
<feBlend mode="normal" in2="BackgroundImageFix" result="effect1_dropShadow"/>
<feBlend mode="normal" in="SourceGraphic" in2="effect1_dropShadow" result="shape"/>
</filter>
<filter id="filter1_d" x="298" y="148" width="240.086" height="240" filterUnits="userSpaceOnUse" color-interpolation-filters="sRGB">
<feFlood flood-opacity="0" result="BackgroundImageFix"/>
<feColorMatrix in="SourceAlpha" type="matrix" values="0 0 0 0 0 0 0 0 0 0 0 0 0 0 0 0 0 0 127 0"/>
<feOffset dy="4"/>
<feGaussianBlur stdDeviation="2"/>
<feColorMatrix type="matrix" values="0 0 0 0 0 0 0 0 0 0 0 0 0 0 0 0 0 0 0.25 0"/>
<feBlend mode="normal" in2="BackgroundImageFix" result="effect1_dropShadow"/>
<feBlend mode="normal" in="SourceGraphic" in2="effect1_dropShadow" result="shape"/>
</filter>
<filter id="filter2_d" x="350" y="108" width="136" height="139" filterUnits="userSpaceOnUse" color-interpolation-filters="sRGB">
<feFlood flood-opacity="0" result="BackgroundImageFix"/>
<feColorMatrix in="SourceAlpha" type="matrix" values="0 0 0 0 0 0 0 0 0 0 0 0 0 0 0 0 0 0 127 0"/>
<feOffset dy="2"/>
<feGaussianBlur stdDeviation="25"/>
<feColorMatrix type="matrix" values="0 0 0 0 0.0116286 0 0 0 0 0.820833 0 0 0 0 0.780597 0 0 0 0.88 0"/>
<feBlend mode="normal" in2="BackgroundImageFix" result="effect1_dropShadow"/>
<feBlend mode="normal" in="SourceGraphic" in2="effect1_dropShadow" result="shape"/>
</filter>
</defs>
</svg>
