<svg width="1379" height="747" viewBox="0 0 1379 747" fill="none" xmlns="http://www.w3.org/2000/svg">
<path d="M304.5 201L495 590.5L602 401L700.5 590.5L903 201V298.5L700.5 700L602 510.5L495 701L245 201H304.5Z" fill="white"/>
<path d="M917 201V298.5L1102 700L1150.5 701L917 201Z" fill="white"/>
<path d="M813 499.5L793 541H1018.5L1000.5 499.5H813Z" fill="white"/>
<path d="M304.5 201L495 590.5L602 401L700.5 590.5L903 201V298.5L700.5 700L602 510.5L495 701L245 201H304.5Z" stroke="black"/>
<path d="M917 201V298.5L1102 700L1150.5 701L917 201Z" stroke="black"/>
<path d="M813 499.5L793 541H1018.5L1000.5 499.5H813Z" stroke="black"/>
<circle cx="1231" cy="669" r="31" fill="#FFFCFC"/>
</svg>
